<svg width="35" height="35" viewBox="0 0 35 35" fill="none" xmlns="http://www.w3.org/2000/svg">
<path d="M14.5835 21.8753C14.5835 22.2621 14.7371 22.633 15.0106 22.9065C15.2841 23.18 15.6551 23.3337 16.0418 23.3337H18.9585C19.3453 23.3337 19.7162 23.18 19.9897 22.9065C20.2632 22.633 20.4168 22.2621 20.4168 21.8753V18.9587C20.4168 18.5719 20.2632 18.201 19.9897 17.9275C19.7162 17.654 19.3453 17.5003 18.9585 17.5003H14.5835V11.667H20.4168" stroke="black" stroke-width="2" stroke-linecap="round" stroke-linejoin="round"/>
<path d="M7.29185 10.5002C7.29185 9.64928 7.62987 8.83323 8.23155 8.23155C8.83323 7.62987 9.64928 7.29185 10.5002 7.29185H11.9585C12.8057 7.29137 13.6182 6.95585 14.2189 6.35852L15.2398 5.33768C15.5379 5.03785 15.8924 4.79991 16.2828 4.63755C16.6733 4.47519 17.0919 4.3916 17.5148 4.3916C17.9376 4.3916 18.3563 4.47519 18.7467 4.63755C19.1371 4.79991 19.4916 5.03785 19.7898 5.33768L20.8106 6.35852C21.4114 6.95643 22.2252 7.29185 23.071 7.29185H24.5294C25.3803 7.29185 26.1963 7.62987 26.798 8.23155C27.3997 8.83323 27.7377 9.64928 27.7377 10.5002V11.9585C27.7377 12.8044 28.0731 13.6181 28.671 14.2189L29.6919 15.2398C29.9917 15.5379 30.2296 15.8924 30.392 16.2828C30.5543 16.6733 30.6379 17.0919 30.6379 17.5148C30.6379 17.9376 30.5543 18.3563 30.392 18.7467C30.2296 19.1371 29.9917 19.4916 29.6919 19.7898L28.671 20.8106C28.0737 21.4113 27.7382 22.2239 27.7377 23.071V24.5294C27.7377 25.3803 27.3997 26.1963 26.798 26.798C26.1963 27.3997 25.3803 27.7377 24.5294 27.7377H23.071C22.2239 27.7382 21.4113 28.0737 20.8106 28.671L19.7898 29.6919C19.4916 29.9917 19.1371 30.2296 18.7467 30.392C18.3563 30.5543 17.9376 30.6379 17.5148 30.6379C17.0919 30.6379 16.6733 30.5543 16.2828 30.392C15.8924 30.2296 15.5379 29.9917 15.2398 29.6919L14.2189 28.671C13.6182 28.0737 12.8057 27.7382 11.9585 27.7377H10.5002C9.64928 27.7377 8.83323 27.3997 8.23155 26.798C7.62987 26.1963 7.29185 25.3803 7.29185 24.5294V23.071C7.29137 22.2239 6.95585 21.4113 6.35852 20.8106L5.33768 19.7898C5.03785 19.4916 4.79991 19.1371 4.63755 18.7467C4.47519 18.3563 4.3916 17.9376 4.3916 17.5148C4.3916 17.0919 4.47519 16.6733 4.63755 16.2828C4.79991 15.8924 5.03785 15.5379 5.33768 15.2398L6.35852 14.2189C6.95585 13.6182 7.29137 12.8057 7.29185 11.9585V10.5002Z" stroke="black" stroke-width="2" stroke-linecap="round" stroke-linejoin="round"/>
</svg>
